<svg width="99" height="100" viewBox="0 0 99 100" fill="none" xmlns="http://www.w3.org/2000/svg">
<mask id="path-1-inside-1_1_4" fill="white">
<path d="M95.7852 70.8475C90.8742 81.4825 82.3543 90.0562 71.7217 95.063C61.0891 100.07 49.0237 101.189 37.6443 98.2255C26.2648 95.2615 16.2991 88.4032 9.4971 78.8553C2.69513 69.3073 -0.508132 57.68 0.449861 46.0154C1.40785 34.3508 6.46585 23.3947 14.7356 15.0711C23.0053 6.74753 33.958 1.58874 45.6702 0.500692C57.3824 -0.587357 69.1052 2.4649 78.7799 9.12145C88.4547 15.778 95.4627 25.6132 98.5733 36.8998L87.7789 39.8452C85.3642 31.0834 79.9238 23.4483 72.4133 18.2808C64.9028 13.1133 55.8023 10.7438 46.7101 11.5885C37.6179 12.4331 29.1153 16.4379 22.6955 22.8995C16.2757 29.3611 12.3491 37.8664 11.6054 46.9217C10.8618 55.9769 13.3485 65.0032 18.6288 72.4154C23.9092 79.8275 31.6457 85.1515 40.4796 87.4525C49.3134 89.7535 58.6799 88.8842 66.934 84.9975C75.1881 81.1107 81.8021 74.4549 85.6146 66.1989L95.7852 70.8475Z"/>
</mask>
<path d="M95.7852 70.8475C90.8742 81.4825 82.3543 90.0562 71.7217 95.063C61.0891 100.07 49.0237 101.189 37.6443 98.2255C26.2648 95.2615 16.2991 88.4032 9.4971 78.8553C2.69513 69.3073 -0.508132 57.68 0.449861 46.0154C1.40785 34.3508 6.46585 23.3947 14.7356 15.0711C23.0053 6.74753 33.958 1.58874 45.6702 0.500692C57.3824 -0.587357 69.1052 2.4649 78.7799 9.12145C88.4547 15.778 95.4627 25.6132 98.5733 36.8998L87.7789 39.8452C85.3642 31.0834 79.9238 23.4483 72.4133 18.2808C64.9028 13.1133 55.8023 10.7438 46.7101 11.5885C37.6179 12.4331 29.1153 16.4379 22.6955 22.8995C16.2757 29.3611 12.3491 37.8664 11.6054 46.9217C10.8618 55.9769 13.3485 65.0032 18.6288 72.4154C23.9092 79.8275 31.6457 85.1515 40.4796 87.4525C49.3134 89.7535 58.6799 88.8842 66.934 84.9975C75.1881 81.1107 81.8021 74.4549 85.6146 66.1989L95.7852 70.8475Z" fill="url(#paint0_linear_1_4)" stroke="url(#paint1_linear_1_4)" stroke-width="2" mask="url(#path-1-inside-1_1_4)"/>
<defs>
<linearGradient id="paint0_linear_1_4" x1="66.5" y1="123" x2="12.6367" y2="21.4697" gradientUnits="userSpaceOnUse">
<stop offset="0.065" stop-color="#194185"/>
<stop offset="0.186001" stop-color="#4F93FF"/>
<stop offset="0.46749" stop-color="#001334"/>
<stop offset="0.639469" stop-color="#0058D4"/>
<stop offset="0.758491" stop-color="#0065FF" stop-opacity="0.633333"/>
<stop offset="1" stop-color="#060F1F"/>
</linearGradient>
<linearGradient id="paint1_linear_1_4" x1="50.0346" y1="0.285912" x2="50.6035" y2="99.8476" gradientUnits="userSpaceOnUse">
<stop offset="0.0001" stop-color="#4F93FF"/>
<stop offset="0.24" stop-color="#4F93FF"/>
<stop offset="0.43" stop-color="#00245B"/>
<stop offset="0.59" stop-color="#B0D1FF"/>
<stop offset="0.82" stop-color="#00C4F7"/>
<stop offset="0.93" stop-color="#B0D1FF"/>
<stop offset="1" stop-color="#B0D1FF"/>
</linearGradient>
</defs>
</svg>
